<svg xmlns="http://www.w3.org/2000/svg" width="106" height="26" fill="none"><g clip-path="url(#a)"><path fill="#fff" d="M92.374 8.716h2.31v6.146h.047c.924-1.448 2.795-2.091 4.597-2.091 3.65 0 6.583 2.321 6.583 6.364 0 4.044-2.934 6.365-6.583 6.365-1.779 0-3.696-.69-4.597-1.953h-.046v1.768h-2.31V8.716Zm6.653 5.985c-2.703 0-4.481 1.677-4.481 4.434 0 2.276 1.34 4.435 4.481 4.435 3.119 0 4.436-2.16 4.436-4.434 0-2.758-1.756-4.435-4.436-4.435ZM91 25.315h-2.31v-1.77h-.047c-.901 1.265-2.818 1.955-4.597 1.955-3.65 0-6.584-2.322-6.584-6.368 0-4.047 2.935-6.369 6.584-6.369 1.801 0 3.672.643 4.597 2.092h.046v-1.956H91v12.416Zm-11.09-6.183c0 2.276 1.317 4.436 4.436 4.436 3.142 0 4.481-2.161 4.481-4.436 0-2.759-1.779-4.437-4.481-4.437-2.68 0-4.436 1.678-4.436 4.437Zm-58.383-2.228c.3-2.98 2.38-4.14 6.007-4.14 2.471 0 5.567.614 5.567 3.39v6.55c0 .704.324 1.023 1.04 1.023.254 0 .577-.045.808-.091v1.591a11.98 11.98 0 0 1-1.802.137c-1.155 0-1.917-.454-2.079-1.797-.923 1.228-3.188 1.933-5.151 1.933-4.02 0-4.92-2.047-4.92-3.593 0-2.183 1.317-3.298 5.198-3.707l2.633-.273c1.293-.136 2.102-.363 2.102-1.432 0-1.638-1.617-1.956-3.488-1.956-1.987 0-3.673.523-3.742 2.365h-2.172Zm9.402 1.955c-.346.386-.97.546-2.263.705l-2.61.319c-1.802.227-2.75.705-2.75 1.955 0 1.114 1.132 1.888 2.819 1.888 2.61 0 4.805-1.365 4.805-3.343v-1.524Zm6.527.955c.185 2.457 2.403 3.776 4.458 3.776 1.317 0 3.119-.433 3.904-2.116h2.45c-1.157 2.866-3.86 4.026-6.238 4.026-4.712 0-7.022-2.934-7.022-6.368 0-3.435 2.31-6.369 7.022-6.369 3.188 0 6.56 1.82 6.56 6.755v.296H37.457Zm8.686-1.774c-.346-2.16-2.055-3.365-4.228-3.365-2.125 0-4.042 1.227-4.389 3.365h8.617Zm18.624-5.276c4.712 0 7.022 2.934 7.022 6.369 0 3.434-2.31 6.368-7.022 6.368s-7.023-2.934-7.023-6.368c0-3.435 2.31-6.369 7.023-6.369Zm0 1.91c-3.35 0-4.574 2.297-4.574 4.458 0 2.16 1.224 4.458 4.574 4.458 3.35 0 4.574-2.297 4.574-4.458 0-2.16-1.225-4.458-4.574-4.458Zm-12.535-1.785h-.544c-.98 0-1.774.794-1.774 1.774v10.655h2.318V14.982l5.512.07v-2.094l-5.512-.07Zm25.547-4.173h-2.395c0 5.534-3.017 11.068-3.017 16.602h2.395c0-5.535 3.017-11.068 3.017-16.602Z"/><path fill="#F75000" d="M21.494 8.707 15.721.5 7.506 6.279l4.033 10.07c-.759.525-1.465.7-2.25.562-2.505-.436-2.892-2.053-3.36-4.876-.238-1.43-.484-2.91-1.222-4.19C3.816 6.302 2.401 5.38.38 5.028L0 7.21c1.371.238 2.231.775 2.788 1.742.537.932.74 2.153.955 3.446.229 1.376.465 2.8 1.147 4.013.83 1.48 2.144 2.357 4.02 2.683 1.214.212 2.357-.003 3.468-.655a7.138 7.138 0 0 0 1.064-.765c.317-.27.61-.566.887-.877l7.17-8.082-.005-.008Z"/></g><defs><clipPath id="a"><path fill="#fff" d="M0 .5h105.911v25H0z"/></clipPath></defs></svg>